<svg version="1.2" xmlns="http://www.w3.org/2000/svg" viewBox="0 0 1800 600" width="1800" height="600">
	<title>logo_opcja1-svg</title>
	<style>
		.s0 { fill: #295d85 } 
		.s1 { fill: #8399a6 } 
		.s2 { fill: #7c93a1 } 
		.s3 { fill: #c5d2da } 
		.s4 { fill: #b7c8d2 } 
		.s5 { fill: #c5d3d6 } 
		.s6 { fill: #2c7ab8 } 
		.s7 { fill: #1c3b50 } 
		.s8 { fill: #5c778a } 
		.s9 { fill: #5d788b } 
		.s10 { fill: #1e3d52 } 
		.s11 { fill: #1d394e } 
		.s12 { fill: #1e3a50 } 
		.s13 { fill: #3b719f } 
		.s14 { fill: #5c7886 } 
		.s15 { fill: #8599a4 } 
		.s16 { fill: #778e9e } 
		.s17 { fill: #1d394f } 
	</style>
	<path id="Shape 4" class="s0" d="m442 195c0-5.5 4.5-10 10-10h46c5.5 0 10 4.5 10 10v46c0 5.5-4.5 10-10 10h-46c-5.5 0-10-4.5-10-10z"/>
	<path id="Shape 4 copy" class="s1" d="m360 114c0-5.5 4.5-10 10-10h46c5.5 0 10 4.5 10 10v46c0 5.5-4.5 10-10 10h-46c-5.5 0-10-4.5-10-10z"/>
	<path id="Shape 4 copy 2" class="s2" d="m441 115c0-5.5 4.5-10 10-10h46c5.5 0 10 4.5 10 10v46c0 5.5-4.5 10-10 10h-46c-5.5 0-10-4.5-10-10z"/>
	<path id="Shape 4 copy 3" class="s3" d="m201 113c0-5.5 4.5-10 10-10h46c5.5 0 10 4.5 10 10v46c0 5.5-4.5 10-10 10h-46c-5.5 0-10-4.5-10-10z"/>
	<path id="Shape 4 copy 4" class="s4" d="m120 114c0-5.5 4.5-10 10-10h46c5.5 0 10 4.5 10 10v46c0 5.5-4.5 10-10 10h-46c-5.5 0-10-4.5-10-10z"/>
	<path id="Shape 4 copy 5" class="s5" d="m117 194c0-5.5 4.5-10 10-10h46c5.5 0 10 4.5 10 10v46c0 5.5-4.5 10-10 10h-46c-5.5 0-10-4.5-10-10z"/>
	<path id="Shape 4 copy 6" class="s6" d="m443 356c0-5.5 4.5-10 10-10h46c5.5 0 10 4.5 10 10v46c0 5.5-4.5 10-10 10h-46c-5.5 0-10-4.5-10-10z"/>
	<path id="Shape 4 copy 7" class="s7" d="m443 439c0-5.5 4.5-10 10-10h46c5.5 0 10 4.5 10 10v46c0 5.5-4.5 10-10 10h-46c-5.5 0-10-4.5-10-10z"/>
	<path id="Shape 4 copy 8" class="s8" d="m360 439c0-5.5 4.5-10 10-10h46c5.5 0 10 4.5 10 10v46c0 5.5-4.5 10-10 10h-46c-5.5 0-10-4.5-10-10z"/>
	<path id="Shape 4 copy 9" class="s9" d="m201 439c0-5.5 4.5-10 10-10h46c5.5 0 10 4.5 10 10v46c0 5.5-4.5 10-10 10h-46c-5.5 0-10-4.5-10-10z"/>
	<path id="Shape 4 copy 10" class="s10" d="m118 357c0-5.5 4.5-10 10-10h46c5.5 0 10 4.5 10 10v46c0 5.5-4.5 10-10 10h-46c-5.5 0-10-4.5-10-10z"/>
	<path id="Shape 4 copy 11" class="s11" d="m120 437c0-5.5 4.5-10 10-10h46c5.5 0 10 4.5 10 10v46c0 5.5-4.5 10-10 10h-46c-5.5 0-10-4.5-10-10z"/>
	<path id="OHS" fill-rule="evenodd" class="s12" d="m655.5 271q-34.8 0-53-18.4-18-18.6-18-52.6 0-34 18-52.4 18.2-18.6 53-18.6 34.8 0 52.8 18.6 18.2 18.4 18.2 52.4 0 34-18.2 52.6-18 18.4-52.8 18.4zm0-28.6q15.8 0 23.2-10.6 7.6-10.6 7.6-31.8 0-21-7.6-31.6-7.4-10.6-23.2-10.6-15.8 0-23.4 10.6-7.4 10.6-7.4 31.6 0 21.2 7.4 31.8 7.6 10.6 23.4 10.6zm94.6 25.6q-5.8 0-8.2-2.4-2.2-2.4-2.2-7.6v-115.8q0-5.2 2.4-7.6 2.4-2.6 8-2.6h19.4q5.8 0 8.2 2.6 2.4 2.4 2.4 7.6v43.2h45.6v-43.2q0-5.2 2.4-7.6 2.4-2.6 8.2-2.6h19.4q5.8 0 8.2 2.6 2.4 2.4 2.4 7.6v115.8q0 5.2-2.4 7.6-2.4 2.4-8.2 2.4h-19.4q-5.8 0-8.2-2.4-2.4-2.4-2.4-7.6v-43.6h-45.6v43.6q0 5.2-2.4 7.6-2.4 2.4-8.2 2.4zm188.8 3q-16.8 0-31.8-3.4-15-3.6-24.2-10-3.4-2.2-3.4-4.6 0-1.6 1.2-3.4l9.8-15.6q1.6-2.4 3.2-2.4 1 0 3.4 1.4 7.4 4.2 16.8 6.8 9.4 2.6 18.6 2.6 9.4 0 13.8-2.8 4.6-2.8 4.6-9 0-6-5-9.4-4.8-3.4-18.2-8.6-20.2-7.6-31.6-17-11.2-9.6-11.2-26 0-19.8 14.2-30.2 14.2-10.4 37.8-10.4 16.4 0 28 3 11.8 2.8 20 8.8 3.4 2.6 3.4 4.8 0 1.4-1.2 3.2l-9.8 15.6q-1.8 2.4-3.2 2.4-1 0-3.4-1.4-11.6-7.6-27.6-7.6-8.6 0-13.2 2.8-4.6 2.8-4.6 9.2 0 4.4 2.4 7.2 2.4 2.8 6.4 5 4.2 2 12.8 5.2l3.8 1.4q14.8 5.8 23.2 11.2 8.6 5.2 13 13 4.4 7.6 4.4 19.2 0 17.8-13.4 28.4-13.2 10.6-39 10.6z"/>
	<path id="SOF" class="s12" aria-label="SOF"  d="m640 442q-16.8 0-31.8-3.4-15-3.6-24.2-10-3.4-2.2-3.4-4.6 0-1.6 1.2-3.4l9.8-15.6q1.6-2.4 3.2-2.4 1 0 3.4 1.4 7.4 4.2 16.8 6.8 9.4 2.6 18.6 2.6 9.4 0 13.8-2.8 4.6-2.8 4.6-9 0-6-5-9.4-4.8-3.4-18.2-8.6-20.2-7.6-31.6-17-11.2-9.6-11.2-26 0-19.8 14.2-30.2 14.2-10.4 37.8-10.4 16.4 0 28 3 11.8 2.8 20 8.8 3.4 2.6 3.4 4.8 0 1.4-1.2 3.2l-9.8 15.6q-1.8 2.4-3.2 2.4-1 0-3.4-1.4-11.6-7.6-27.6-7.6-8.6 0-13.2 2.8-4.6 2.8-4.6 9.2 0 4.4 2.4 7.2 2.4 2.8 6.4 5 4.2 2 12.8 5.2l3.8 1.4q14.8 5.8 23.2 11.2 8.6 5.2 13 13 4.4 7.6 4.4 19.2 0 17.8-13.4 28.4-13.2 10.6-39 10.6zm132.6 0q-34.8 0-53-18.4-18-18.6-18-52.6 0-34 18-52.4 18.2-18.6 53-18.6 34.8 0 52.8 18.6 18.2 18.4 18.2 52.4 0 34-18.2 52.6-18 18.4-52.8 18.4zm0-28.6q15.8 0 23.2-10.6 7.6-10.6 7.6-31.8 0-21-7.6-31.6-7.4-10.6-23.2-10.6-15.8 0-23.4 10.6-7.4 10.6-7.4 31.6 0 21.2 7.4 31.8 7.6 10.6 23.4 10.6zm94.6 25.6q-5.8 0-8.2-2.4-2.2-2.4-2.2-7.6v-115.8q0-5.2 2.4-7.6 2.4-2.6 8-2.6h83q5.6 0 7.6 2.4 2 2.2 2 7.6v9.2q0 5.4-2 7.8-2 2.2-7.6 2.2h-53v24.2h35q5.6 0 7.6 2.4 2.2 2.2 2.2 7.6v9.2q0 5.4-2.2 7.8-2 2.2-7.6 2.2h-35v43.4q0 5.2-2.4 7.6-2.4 2.4-8.2 2.4z"/>
	<path id="TWARE" class="s12" aria-label="TWARE"  d="m1017.6 439q-5.8 0-8.2-2.4-2.4-2.4-2.4-7.6v-96.8h-30.8q-5.6 0-7.6-2.2-2-2.4-2-7.6v-9.4q0-5.2 2-7.6 2-2.4 7.6-2.4h102.2q5.6 0 7.6 2.4 2.2 2.4 2.2 7.6v9.4q0 5.2-2.2 7.6-2 2.2-7.6 2.2h-30.8v96.8q0 5.2-2.4 7.6-2.4 2.4-8.2 2.4zm113 0q-4 0-6.4-1.4-2.2-1.6-3-5.2l-30.4-123.4q-0.2-0.8-0.2-2.2 0-3.8 5-3.8h28.2q3.6 0 5 1.2 1.6 1.2 2 3.8l12 61.2 16-50.2q1-3.2 2.6-4.4 1.6-1.2 5.2-1.2h13.4q3.6 0 5.2 1.2 1.8 1.2 2.8 4.4l16 50.2 11.8-61.2q0.4-2.6 2-3.8 1.6-1.2 5.2-1.2h28.2q5.2 0 5.2 3.8 0 1.4-0.2 2.2l-30.8 123.4q-0.8 3.6-3 5.2-2.2 1.4-6.2 1.4h-18.2q-4 0-6.2-1.4-2-1.6-3-5.2l-15.4-52.6-15.4 52.6q-1 3.6-3.2 5.2-2.2 1.4-6 1.4zm118.4 0q-4.2 0-4.2-3.6 0-1.6 1-4l50.8-121.6q1.6-3.8 3.4-5.2 2-1.6 5.8-1.6h18.2q3.8 0 5.6 1.6 2 1.4 3.6 5.2l50.8 121.6q1 2.4 1 3.8 0 1.8-1.2 2.8-1 1-3 1h-31q-2.8 0-4.4-1-1.6-1.2-2.6-3.8l-7-19.2h-42l-6.8 19.2q-1 2.6-2.6 3.8-1.6 1-4.6 1zm53.6-51.2h24.4l-12.2-34zm106 51.2q-5.8 0-8.2-2.4-2.2-2.4-2.2-7.6v-115.8q0-5.2 2.4-7.6 2.4-2.6 8-2.6h49.2q27.8 0 41 11.6 13.2 11.6 13.2 34.6 0 28.6-22 39.4l19.8 43q0.8 1.6 0.8 3.2 0 1.8-1.4 3-1.2 1.2-3.4 1.2h-28q-3 0-4.8-0.8-1.6-0.8-2.4-3l-16.6-40.6h-15.4v34.4q0 5.2-2.4 7.6-2.4 2.4-8.2 2.4zm30-73h14.8q18.2 0 18.2-16.8 0-17-17.2-17h-15.8zm97 73q-5.8 0-8.2-2.4-2.2-2.4-2.2-7.6v-115.8q0-5.2 2.4-7.6 2.4-2.6 8-2.6h83q5.6 0 7.6 2.4 2 2.2 2 7.6v9.2q0 5.4-2 7.8-2 2.2-7.6 2.2h-53v24.4h35q5.6 0 7.6 2.4 2.2 2.2 2.2 7.6v8.8q0 5.4-2.2 7.8-2 2.2-7.6 2.2h-35v24.6h52.8q5.6 0 7.6 2.4 2 2.2 2 7.6v9.2q0 5.2-2 7.6-2 2.2-7.6 2.2z"/>
	<path id="Shape 5" fill-rule="evenodd" class="s13" d="m203 237c0-27.6 22.4-50 50-50h122c27.6 0 50 22.4 50 50v125c0 27.6-22.4 50-50 50h-122c-27.6 0-50-22.4-50-50zm42 99c0 19.3 15.7 35 35 35h67c19.3 0 35-15.7 35-35v-72c0-19.3-15.7-35-35-35h-67c-19.3 0-35 15.7-35 35z"/>
	<path id="Shape 3" class="s14" d="m469 284c0-8.8 7.2-16 16-16h41c8.8 0 16 7.2 16 16v31c0 8.8-7.2 16-16 16h-41c-8.8 0-16-7.2-16-16zm-25-6c0-5.5 4.5-10 10-10h50c5.5 0 10 4.5 10 10v43.3c0 5.6-4.5 10-10 10h-50c-5.5 0-10-4.4-10-10z"/>
	<path id="Shape 3 copy" class="s15" d="m297.3 140.7c-8.8 0-16-7.1-16-16v-44.7c0-8.8 7.2-16 16-16h30.4c8.8 0 16 7.2 16 16v44.7c0 8.9-7.2 16-16 16zm-6 26.3c-5.5 0-10-4.5-10-10v-53.6c0-5.5 4.5-10 10-10h42.7c5.5 0 10 4.5 10 10v53.6c0 5.5-4.5 10-10 10z"/>
	<path id="Shape 3 copy 2" class="s16" d="m158 318.7c0 8.8-7.2 16-16 16h-41c-8.8 0-16-7.2-16-16v-30.4c0-8.8 7.2-16 16-16h41c8.8 0 16 7.2 16 16zm25 6c0 5.6-4.5 10-10 10h-50c-5.5 0-10-4.4-10-10v-42.7c0-5.5 4.5-10 10-10h50c5.5 0 10 4.5 10 10z"/>
	<path id="Shape 3 copy 3" class="s17" d="m329.7 456.3c8.8 0 16 7.1 16 16v44.7c0 8.8-7.2 16-16 16h-30.4c-8.8 0-16-7.2-16-16v-44.7c0-8.9 7.2-16 16-16zm6-26.3c5.6 0 10 4.5 10 10v53.6c0 5.5-4.4 10-10 10h-42.7c-5.5 0-10-4.5-10-10v-53.6c0-5.5 4.5-10 10-10z"/>
</svg>